<svg width="230" height="69" viewBox="0 0 230 69" fill="none" xmlns="http://www.w3.org/2000/svg">
<g clip-path="url(#clip0)">
<path fill-rule="evenodd" clip-rule="evenodd" d="M97.056 0C98.0703 0.287526 98.9261 0.806323 99.4966 1.71266C100.15 2.75025 100.188 3.8566 99.6108 4.91295C99.0275 5.98179 98.0893 6.58185 96.8278 6.6756C94.7738 6.84437 93.0748 5.01295 93.1826 3.19404C93.2713 1.6939 94.666 0.212519 96.1748 0.0937585C96.422 -0.0187517 96.701 0.131262 96.9482 0H97.056V0Z" fill="#00607C"/>
<path fill-rule="evenodd" clip-rule="evenodd" d="M229.905 48.3107C229.937 48.3107 229.968 48.3107 230 48.3169V49.4795C229.968 49.4858 229.937 49.4858 229.905 49.4858C229.645 49.092 229.645 48.7045 229.905 48.3107Z" fill="#B2CDD5"/>
<path fill-rule="evenodd" clip-rule="evenodd" d="M96.9482 0C96.7136 0.200018 96.4411 0.0750068 96.1748 0.0937585C96.1811 0.0625057 96.1875 0.0250023 96.1938 0H96.9482Z" fill="#66A1B2"/>
<path fill-rule="evenodd" clip-rule="evenodd" d="M113.14 39.7848C114.262 38.6597 115.473 37.7909 116.982 37.3534C118.414 36.9346 119.866 36.8721 121.324 37.1909C123.067 37.5784 124.278 38.6347 125.026 40.2599C125.616 39.6598 126.155 39.0848 126.808 38.6222C129.039 37.0283 131.511 36.5971 134.149 37.2971C136.336 37.8909 137.401 39.5161 137.902 41.5975C138.041 42.1851 138.041 42.7851 138.041 43.3852C138.047 45.8354 138.041 48.2981 138.041 50.7483C138.047 51.6297 138.174 51.7609 139.062 51.9297C139.664 52.0485 140.272 51.9922 140.881 51.9922C141.166 51.9922 141.255 52.0797 141.242 52.3547C141.223 52.7985 141.217 53.2423 141.249 53.6798C141.274 54.0424 141.166 54.1549 140.78 54.1486C138.833 54.1299 136.875 54.1424 134.928 54.1424C133.578 54.1424 132.24 54.1361 130.89 54.1486C130.535 54.1549 130.37 54.0799 130.402 53.6924C130.434 53.2861 130.427 52.8735 130.402 52.4735C130.377 52.111 130.478 51.9797 130.871 51.9922C131.511 52.0109 132.158 52.0359 132.798 51.9172C133.489 51.7922 133.699 51.5734 133.699 50.8983C133.705 48.3169 133.705 45.7416 133.699 43.1664C133.692 40.5037 131.721 39.7036 129.857 39.8724C127.442 40.0786 125.686 42.0475 125.679 44.4478C125.673 46.5667 125.679 48.6856 125.679 50.8046C125.679 51.6422 125.869 51.8859 126.725 51.9672C127.315 52.0172 127.904 52.0109 128.494 51.9859C128.862 51.9734 128.957 52.1047 128.938 52.436C128.912 52.8735 128.925 53.3236 128.931 53.7611C128.938 54.0174 128.893 54.1361 128.583 54.1361C125.166 54.1299 121.736 54.1299 118.319 54.1361C118.047 54.1361 117.989 54.0361 117.996 53.7924C118.015 53.2986 118.015 52.7985 117.996 52.311C117.989 52.0547 118.097 51.9922 118.344 51.9859C119.023 51.9797 119.707 52.0547 120.386 51.9109C121.07 51.7734 121.261 51.5547 121.261 50.8921C121.261 48.4544 121.254 46.0104 121.261 43.5789C121.261 43.1351 121.21 42.6914 121.115 42.2663C120.703 40.4787 119.257 39.6473 117.248 39.8473C114.725 40.0974 113.248 42.4851 113.235 44.6665C113.229 46.7667 113.229 48.8669 113.235 50.9734C113.241 51.6422 113.4 51.7859 114.065 51.9109C114.725 52.0422 115.39 51.9984 116.05 51.9922C116.36 51.9859 116.449 52.0922 116.436 52.3797C116.405 52.9423 116.62 53.6798 116.341 54.0236C116.043 54.3862 115.27 54.1361 114.706 54.1361C111.84 54.1424 108.975 54.1299 106.103 54.1486C105.685 54.1549 105.539 54.0486 105.571 53.6361C105.609 53.2111 105.596 52.786 105.577 52.361C105.564 52.086 105.659 51.9922 105.938 51.9984C106.515 52.0172 107.086 52.0235 107.663 51.9984C108.575 51.9609 108.829 51.6984 108.829 50.8108C108.829 47.5605 108.829 44.3103 108.829 41.06C108.829 39.9161 108.652 39.7036 107.498 39.4723C107.2 39.4098 106.896 39.3473 106.598 39.3536C106.147 39.3723 106.071 39.1473 106.109 38.7722C106.147 38.3035 105.919 37.7159 106.192 37.3909C106.452 37.0846 107.073 37.2784 107.529 37.2534C109.076 37.1471 110.636 37.0783 112.189 36.9783C112.468 36.9658 112.569 37.0596 112.62 37.3034C112.766 38.1034 112.95 38.916 113.14 39.7848Z" fill="#00607C"/>
<path fill-rule="evenodd" clip-rule="evenodd" d="M70.1898 40.3224C70.9949 39.4973 71.7619 38.816 72.6494 38.2784C74.6844 37.0471 76.8715 36.6283 79.2297 37.0658C81.8733 37.5534 83.2046 39.3785 83.7244 41.61C83.8765 42.26 83.9209 42.9351 83.9209 43.6102C83.9209 46.1479 83.9146 48.6919 83.9209 51.2359C83.9209 52.3797 84.352 52.836 85.5184 52.886C86.07 52.911 86.6278 52.9173 87.1857 52.8923C87.5153 52.8798 87.6041 52.986 87.6041 53.3048C87.6041 54.2549 87.6231 54.2549 86.6595 54.2549C83.5279 54.2549 80.3962 54.2424 77.2582 54.2611C76.8271 54.2611 76.6179 54.1799 76.7003 53.7173C76.7067 53.7111 76.7067 53.6923 76.7067 53.6736C76.7193 52.786 76.5989 52.9173 77.4674 52.9048C77.8794 52.8985 78.2915 52.8985 78.7036 52.8735C79.8827 52.786 80.3328 52.3172 80.3391 51.1608C80.3391 48.6544 80.2821 46.1479 80.3455 43.6414C80.4596 39.5723 76.9729 38.1597 73.8032 39.3785C71.6605 40.1974 70.1961 42.3538 70.1898 44.6165C70.1834 46.7917 70.1898 48.9607 70.1898 51.1296C70.1961 52.3922 70.6462 52.8485 71.9267 52.8923C72.4466 52.911 72.9664 52.911 73.4862 52.8985C73.7652 52.8923 73.8539 52.9735 73.8603 53.2548C73.8983 54.2611 73.911 54.2611 72.9157 54.2611C69.8538 54.2611 66.7918 54.2549 63.7299 54.2674C63.3432 54.2674 63.1594 54.2174 63.1847 53.7611C63.2227 52.9048 63.1911 52.911 64.0659 52.8985C64.5477 52.8985 65.0231 52.9235 65.4986 52.786C66.2593 52.5735 66.6143 52.1484 66.646 51.3921C66.6524 51.2296 66.6524 51.0733 66.6524 50.9108V31.4716C66.6524 29.7652 66.0184 29.0964 64.3004 29.0026C63.8567 28.9776 63.4003 28.9713 62.9565 28.9901C62.6205 29.0088 62.5381 28.8963 62.5381 28.5713C62.5381 27.6587 62.5254 27.64 63.4383 27.5962C65.5176 27.4962 67.5906 27.4337 69.6636 27.3274C70.082 27.3087 70.2024 27.4087 70.1961 27.8337C70.1834 31.7591 70.1898 35.6719 70.1898 39.5973V40.3224Z" fill="#00607C"/>
<path fill-rule="evenodd" clip-rule="evenodd" d="M229.905 48.3106V49.492C229.613 51.4672 228.352 52.7298 226.609 53.4986C223.452 54.8925 220.345 54.6424 217.366 52.9235C217.036 52.7298 216.84 52.6923 216.573 53.0048C216.282 53.3548 215.927 53.6611 215.597 53.9861C215.483 54.0924 215.388 54.2049 215.204 54.2362C214.355 54.3612 214.234 54.2737 214.183 53.4423C214.057 51.5547 213.936 49.6732 213.797 47.7856C213.778 47.4855 213.822 47.3793 214.171 47.348C214.893 47.2793 215.35 47.4418 215.603 48.1981C215.844 48.9107 216.288 49.542 216.725 50.1733C217.987 51.9859 219.775 52.836 221.943 52.9735C222.982 53.0423 224.016 52.9798 225.024 52.6673C225.594 52.4922 226.114 52.2172 226.552 51.8172C228.054 50.4483 227.629 48.3419 225.689 47.6856C224.726 47.3543 223.711 47.2168 222.704 47.048C220.998 46.7605 219.28 46.5167 217.632 45.9729C216.034 45.4541 214.817 44.504 214.31 42.8601C213.733 41.0037 214.545 38.9285 216.339 37.6221C217.898 36.4783 219.686 36.197 221.575 36.297C223.014 36.372 224.345 36.7908 225.575 37.5221C225.797 37.6534 225.937 37.6534 226.12 37.4659C226.393 37.1846 226.723 36.9533 226.983 36.6658C227.274 36.347 227.623 36.4158 227.978 36.4095C228.2 36.4095 228.181 36.5658 228.187 36.7033C228.365 38.5285 228.529 40.3599 228.707 42.1851C228.732 42.4663 228.637 42.5413 228.358 42.5476C227.357 42.5788 227.331 42.5976 226.932 41.6538C225.195 37.5534 221.309 37.1596 218.621 37.9222C218.006 38.0972 217.48 38.4285 217.042 38.8848C215.971 40.0099 216.142 41.535 217.454 42.3788C218.329 42.9414 219.337 43.1414 220.333 43.3227C222.165 43.6539 224.016 43.8352 225.816 44.2852C226.602 44.479 227.344 44.7853 228.01 45.2416C229.106 45.9979 229.747 47.0105 229.905 48.3106Z" fill="#00607C"/>
<path fill-rule="evenodd" clip-rule="evenodd" d="M30.8669 43.6477C31 43.3164 31.1395 42.9852 31.2726 42.6476C31.8305 41.3038 32.5025 40.0224 33.4978 38.9285C34.9241 37.3722 36.7055 36.8096 38.7848 37.2096C40.5725 37.5534 41.5932 39.1661 41.1621 40.91C40.9466 41.7726 40.376 42.3226 39.4885 42.5039C38.5629 42.6851 37.7071 42.5226 37.1429 41.7288C36.6041 40.9725 36.6801 40.1662 37.1683 39.3973C37.2951 39.2036 37.5677 39.0036 37.3648 38.7473C37.2 38.5285 36.902 38.6285 36.6675 38.6723C35.6341 38.9035 34.8797 39.5474 34.1951 40.2787C32.9019 41.6538 32.3757 43.404 31.8305 45.1354C31.4945 46.2355 31.3297 47.3668 31.3487 48.5294C31.3741 49.5358 31.3487 50.5359 31.355 51.5422C31.3614 52.2735 31.6276 52.5798 32.3503 52.7986C32.6736 52.8923 33.0223 52.8986 33.352 52.9048C34.081 52.9111 34.8227 52.9548 35.5581 52.8986C36.1286 52.8548 36.2554 53.0423 36.2237 53.5674C36.1793 54.2612 36.211 54.2612 35.4883 54.2612C31.7164 54.2612 27.9444 54.2487 24.1598 54.2674C23.7287 54.2674 23.5829 54.1424 23.64 53.7424C23.659 53.6549 23.659 53.5674 23.64 53.4799C23.5639 53.0236 23.7287 52.8611 24.2105 52.8923C24.8571 52.9361 25.5038 52.9111 26.1504 52.8861C27.2851 52.8173 27.7162 52.3548 27.7162 51.2547V41.4038C27.7162 41.21 27.7226 41.0162 27.7035 40.8225C27.5894 39.3786 26.8477 38.7035 25.3897 38.6723C24.9015 38.666 24.4134 38.6535 23.9316 38.6785C23.5893 38.6973 23.5195 38.5723 23.5195 38.2597C23.5259 37.4159 23.5132 37.4097 24.331 37.3659C26.3152 37.2659 28.2994 37.1971 30.2837 37.0784C30.6957 37.0534 30.7782 37.1784 30.7782 37.5659C30.7655 39.5786 30.7718 41.5913 30.7718 43.6102C30.8035 43.6227 30.8352 43.6352 30.8669 43.6477Z" fill="#00607C"/>
<path fill-rule="evenodd" clip-rule="evenodd" d="M52.9719 36.3845C55.1654 36.397 57.0672 36.8283 58.6457 38.2034C59.5269 38.9785 60.1038 39.8848 59.9833 41.1162C59.8819 42.1663 58.9183 43.0476 57.7582 43.1226C56.5917 43.2039 55.5521 42.5351 55.3175 41.56C55.1527 40.8412 55.4697 40.2849 55.9198 39.7786C56.4903 39.141 56.4586 38.7972 55.7422 38.2847C55.1907 37.8847 54.5504 37.7284 53.8785 37.6784C51.2413 37.4596 49.5803 38.341 48.4773 40.3036C47.3679 42.2851 47.1587 44.4228 47.3362 46.6167C47.4186 47.548 47.6088 48.4544 48.0145 49.3232C48.9147 51.2234 50.4045 52.3797 52.5218 52.6547C54.7977 52.9485 56.6488 52.2047 57.9801 50.342C58.2653 49.9295 58.5126 49.5045 58.7345 49.0669C58.8549 48.8169 58.969 48.7856 59.2289 48.8356C60.3637 49.0732 60.3637 49.0607 59.8819 50.117C58.7978 52.4922 56.9404 53.8236 54.3349 54.1611C52.4775 54.3924 50.6454 54.2611 48.8894 53.6173C44.8702 52.136 42.981 48.8794 43.3487 44.7165C43.6403 41.46 45.2442 39.0785 48.1603 37.5596C49.6437 36.7846 51.3047 36.397 52.9719 36.3845Z" fill="#00607C"/>
<path fill-rule="evenodd" clip-rule="evenodd" d="M94.4639 19.1892C93.6461 19.5705 92.898 20.0768 92.0676 20.4206C91.1737 20.7956 90.2735 21.0582 89.2972 21.0832C88.7267 21.1019 88.2639 20.7456 87.7251 20.6644C87.5476 20.5706 87.4525 20.4144 87.3827 20.2393C87.4208 19.9581 87.2179 19.7455 87.1609 19.483C86.7615 17.7079 88.1181 15.7827 89.443 15.0764C90.7173 14.3951 92.0359 14.2513 93.4242 14.6451C93.6144 14.6951 93.7919 14.7326 93.9947 14.6951C94.3434 14.6388 94.4955 14.4888 94.4765 14.1013C94.4385 13.2762 94.4575 12.4449 94.4702 11.6198C94.4765 11.4573 94.4005 11.2635 94.5906 11.1385C94.7681 11.3385 94.7428 11.6011 94.7491 11.8386C94.7555 12.5136 94.7555 13.1824 94.7491 13.8513C94.7491 14.2013 94.8823 14.3888 95.2626 14.3326C96.1882 14.1888 97.1201 14.2763 98.0456 14.2575C98.7049 14.2513 98.7113 14.2575 98.7176 13.5762C98.7176 12.9824 98.7113 12.3824 98.7176 11.7823C98.7239 11.5511 98.7113 11.3198 98.8888 11.1323C99.1106 11.401 98.9775 11.7073 98.9902 11.9948C99.0092 12.6762 99.0092 13.37 98.9839 14.0575C98.9712 14.4263 99.1043 14.5701 99.4783 14.6513C101.894 15.1389 103.605 16.4452 104.189 18.9017C104.563 20.4519 104.512 21.977 103.364 23.2709C102.794 23.9147 102.109 24.4147 101.342 24.8022C100.543 25.221 99.7129 25.5898 98.8888 25.9774C98.6605 25.7461 98.7239 25.4523 98.7239 25.1773C98.7176 23.4646 98.7176 21.7707 98.7176 20.0518C98.7176 19.283 98.6669 19.2142 97.8935 19.1205C96.8475 19.0017 95.7951 18.9267 94.7555 19.1705C94.6604 19.1892 94.5589 19.1955 94.4639 19.1892Z" fill="#E1E1E0"/>
<path fill-rule="evenodd" clip-rule="evenodd" d="M98.7932 48.2169C98.7742 48.8857 98.7678 49.5483 98.8819 50.2233C99.0848 51.4109 99.7948 52.0172 101.006 52.0172C101.627 52.0172 102.261 52.036 102.888 52.011C103.269 51.9922 103.44 52.0672 103.402 52.4923C103.364 52.9611 103.377 53.4424 103.402 53.9174C103.415 54.2487 103.332 54.3675 102.965 54.3675C98.7235 54.3612 94.4824 54.3612 90.235 54.3675C89.8863 54.3675 89.8166 54.2549 89.8293 53.9487C89.8546 53.4361 89.8546 52.9236 89.8229 52.411C89.8039 52.061 89.9497 51.9985 90.254 52.011C90.9006 52.0297 91.5472 52.0172 92.1939 52.0172C93.2145 52.011 93.7914 51.6235 94.1528 50.6859C94.3556 50.1546 94.457 49.6045 94.4761 49.0357C94.4951 48.4169 94.4824 47.7981 94.4887 47.1856C94.6789 46.973 94.8945 47.1168 95.091 47.1481C95.6108 47.2481 96.1306 47.4043 96.7519 47.3168C96.2004 46.7668 95.5791 46.398 95.0149 45.9542C94.755 45.7417 94.457 45.5604 94.3556 45.2104C94.2795 44.2415 94.2922 43.279 94.3493 42.3101C94.4761 41.6476 94.4063 40.9787 94.419 40.3037C94.4253 40.0474 94.4063 39.7849 94.4887 39.5224C94.4951 37.8722 94.4951 36.2221 94.4951 34.5782C94.6599 34.4031 94.8374 34.5094 94.9896 34.5844C96.137 35.1095 97.2591 35.6845 98.3241 36.3596C98.7425 36.6158 98.939 36.9534 98.9263 37.4597C98.9073 38.3348 98.9897 39.2223 98.9263 40.0974C98.7361 42.7352 98.8756 45.3729 98.8249 48.0106C98.8249 48.0731 98.8186 48.1481 98.7932 48.2169Z" fill="#00607C"/>
<path fill-rule="evenodd" clip-rule="evenodd" d="M98.7933 48.2169C98.7933 44.9416 98.7743 41.66 98.7996 38.391C98.8123 36.7721 98.863 36.7596 97.405 35.997C96.4477 35.497 95.5222 34.9282 94.4952 34.5844C93.969 34.0718 93.259 33.8406 92.6568 33.4405C91.6171 32.778 90.6535 32.0341 89.8928 31.0528C88.72 29.5277 88.9482 27.6775 89.8674 26.2149C90.9197 24.5335 92.5109 23.4334 94.1465 22.3833C94.3874 22.2208 94.4762 22.0645 94.4698 21.7895C94.4508 20.9269 94.4635 20.0643 94.4635 19.2017C94.4952 19.158 94.5395 19.1205 94.5712 19.0767C94.7995 19.3142 94.7361 19.608 94.7361 19.883C94.7424 23.1458 94.7551 26.4024 94.7234 29.6714C94.7171 30.334 94.9326 30.759 95.4905 31.1091C96.4224 31.6966 97.4113 32.1967 98.3559 32.7717C98.5397 32.8842 98.7299 32.978 98.863 33.153C99.0405 33.553 99.4589 33.6843 99.7759 33.9218C101.266 35.0219 101.988 36.9221 101.564 38.6785C101.285 39.8536 100.442 40.4787 99.3639 40.8412C98.9518 40.9849 98.8694 41.1912 98.8757 41.5788C98.8821 43.6039 98.8757 45.6291 98.8694 47.6543C98.8757 47.8418 98.9391 48.0418 98.7933 48.2169Z" fill="#E1E1E0"/>
<path fill-rule="evenodd" clip-rule="evenodd" d="M98.8694 33.153C98.8377 33.1593 98.787 33.1718 98.7679 33.1593C97.4367 32.3842 96.0293 31.7216 94.7995 30.7778C94.6093 30.6403 94.5459 30.4653 94.5459 30.234C94.5522 26.5087 94.5649 22.7896 94.5713 19.0767C94.8121 18.8955 95.0721 18.8267 95.37 18.833C96.3209 18.8642 97.2655 18.833 98.2037 18.983C98.6538 19.0455 98.8947 19.1705 98.8821 19.7331C98.8504 21.8145 98.8821 23.8959 98.8884 25.9649C98.8821 28.3588 98.8757 30.7465 98.8694 33.153Z" fill="#00607C"/>
<path fill-rule="evenodd" clip-rule="evenodd" d="M122.832 63.9183C123.568 63.9183 124.303 63.9058 125.039 63.9245C125.349 63.937 125.482 63.862 125.47 63.5307C125.444 62.7869 125.444 62.0431 125.463 61.3055C125.482 60.7805 125.241 60.618 124.772 60.6242C124.531 60.6242 124.303 60.618 124.069 60.6242C123.898 60.6242 123.802 60.5867 123.809 60.3867C123.815 60.1992 123.847 60.0992 124.075 60.0992C125.615 60.1054 127.15 60.1054 128.696 60.0992C128.912 60.0992 128.969 60.1867 128.969 60.3805C128.969 60.5742 128.887 60.6367 128.715 60.6242C128.677 60.618 128.639 60.618 128.601 60.6242C127.251 60.6742 127.251 60.6742 127.251 61.9994V67.5061C127.257 68.1499 127.34 68.2374 127.993 68.2562C128.227 68.2624 128.456 68.2687 128.69 68.2624C128.899 68.2562 128.975 68.3374 128.975 68.5437C128.975 68.7812 128.842 68.7937 128.665 68.7937C127.143 68.7875 125.628 68.7875 124.107 68.7937C123.904 68.7937 123.809 68.7375 123.815 68.5312C123.815 68.3062 123.929 68.2562 124.119 68.2624C124.151 68.2687 124.183 68.2624 124.227 68.2624C125.451 68.2749 125.476 68.3562 125.463 67.0061C125.463 66.3372 125.451 65.6622 125.47 64.9996C125.476 64.6933 125.375 64.6058 125.077 64.6058C123.555 64.6183 122.027 64.6183 120.512 64.5996C120.202 64.5996 120.119 64.6996 120.119 65.0059C120.138 65.8435 120.138 66.6935 120.119 67.5374C120.113 68.0562 120.316 68.2999 120.848 68.2624C121.076 68.2499 121.317 68.2687 121.546 68.2562C121.736 68.2499 121.844 68.2999 121.856 68.5249C121.863 68.7375 121.748 68.7875 121.558 68.7875C120.018 68.7812 118.477 68.7812 116.937 68.7875C116.791 68.7875 116.652 68.7687 116.652 68.5624C116.652 68.3812 116.69 68.2499 116.912 68.2624C116.969 68.2624 117.019 68.2562 117.076 68.2624C118.528 68.2874 118.319 68.1749 118.325 66.9623C118.338 65.1621 118.332 63.362 118.332 61.5681C118.325 60.7492 118.211 60.6305 117.368 60.6242C117.222 60.618 117.076 60.618 116.931 60.6242C116.778 60.6242 116.645 60.6055 116.652 60.3992C116.652 60.2179 116.69 60.0992 116.912 60.0992C118.471 60.1054 120.024 60.1054 121.584 60.0992C121.812 60.0992 121.844 60.2179 121.85 60.3992C121.85 60.6055 121.723 60.6242 121.571 60.6242C121.26 60.6242 120.956 60.6117 120.652 60.643C120.366 60.6617 120.132 60.7742 120.132 61.1243C120.132 61.9681 120.126 62.8119 120.113 63.662C120.107 63.9308 120.278 63.9245 120.462 63.9245C121.26 63.9183 122.053 63.9183 122.832 63.9183Z" fill="#00607C"/>
<path fill-rule="evenodd" clip-rule="evenodd" d="M44.5846 65.0122C46.1251 63.8058 47.5452 62.687 48.9779 61.5806C49.1871 61.4118 49.3899 61.2618 49.3202 60.9868C49.2441 60.7118 48.9715 60.718 48.7496 60.6805C48.5531 60.6555 48.3566 60.6305 48.1601 60.6305C47.9572 60.6305 47.8621 60.5743 47.8685 60.3617C47.8811 60.193 47.9445 60.1055 48.1284 60.1055C49.6372 60.1117 51.1333 60.1117 52.642 60.1055C52.8386 60.1055 52.8829 60.2055 52.8829 60.3742C52.8766 60.493 52.8893 60.6368 52.6991 60.6305C51.184 60.5805 50.1633 61.5306 49.0666 62.3432C48.6862 62.6307 48.3249 62.9495 47.9192 63.212C47.6276 63.3995 47.5832 63.512 47.8494 63.7933C49.0286 65.0247 50.1887 66.2748 51.3425 67.5249C51.8052 68.0187 52.3314 68.325 53.0351 68.2812C53.2126 68.275 53.4471 68.2062 53.4535 68.5312C53.4662 68.9 53.2062 68.8 53.0161 68.8C51.4946 68.8063 49.9668 68.8063 48.4517 68.8C48.2805 68.8 48.0396 68.9 48.0269 68.5625C48.0143 68.2125 48.2615 68.2875 48.4644 68.2812C48.8067 68.2687 49.1427 68.275 49.4787 68.2312C49.7196 68.1937 49.8273 68.0624 49.6118 67.8312C48.5912 66.7436 47.5705 65.6622 46.5499 64.5684C46.3977 64.4059 46.2899 64.4559 46.1505 64.5746C45.7067 64.9309 45.2566 65.2809 44.8002 65.6185C44.6354 65.7372 44.5846 65.8747 44.591 66.0685C44.5973 66.6311 44.6037 67.1999 44.5846 67.7624C44.572 68.1375 44.7685 68.2625 45.0981 68.275C45.4785 68.275 45.8525 68.2875 46.2266 68.2812C46.4231 68.275 46.5182 68.35 46.5245 68.5562C46.5308 68.7875 46.3914 68.8063 46.2202 68.8063C44.5783 68.8063 42.9237 68.8063 41.2818 68.8063C41.117 68.8063 40.9648 68.825 40.9648 68.5687C40.9648 68.3312 41.079 68.2687 41.2945 68.2812C41.6178 68.2875 41.9411 68.275 42.2581 68.275C42.6258 68.275 42.8096 68.0999 42.8033 67.7249C42.7969 65.556 42.7969 63.3808 42.8096 61.2118C42.8096 60.9118 42.7145 60.7743 42.4102 60.7055C42.0362 60.618 41.6622 60.6618 41.2882 60.643C41.1233 60.6368 40.9712 60.668 40.9712 60.4117C40.9712 60.1742 41.0726 60.118 41.2945 60.118C42.9364 60.1242 44.5846 60.1242 46.2266 60.118C46.4167 60.118 46.5308 60.1555 46.5308 60.3742C46.5372 60.5868 46.4421 60.6618 46.2456 60.643C46.2075 60.6368 46.1695 60.643 46.1378 60.643C44.6037 60.693 44.6037 60.693 44.6037 62.2307V65.0122H44.5846Z" fill="#00607C"/>
<path fill-rule="evenodd" clip-rule="evenodd" d="M104.143 64.9809C105.703 63.787 107.18 62.6557 108.651 61.5181C108.809 61.3931 108.917 61.218 108.879 61.0055C108.834 60.7743 108.638 60.718 108.435 60.6992C108.207 60.668 107.979 60.6242 107.744 60.6242C107.548 60.618 107.453 60.5617 107.453 60.3492C107.459 60.1242 107.567 60.0867 107.757 60.0867C109.209 60.0929 110.654 60.0929 112.112 60.0867C112.328 60.0867 112.429 60.1429 112.429 60.3742C112.423 60.6242 112.277 60.6117 112.112 60.6117C111.282 60.6305 110.54 60.8993 109.88 61.3868C109.037 62.0119 108.207 62.6557 107.364 63.2682C107.136 63.4307 107.161 63.5183 107.338 63.6995C108.562 64.9871 109.779 66.2873 110.977 67.5874C111.421 68.0624 111.947 68.2874 112.594 68.2562C112.803 68.2437 113.05 68.1999 113.038 68.5437C113.025 68.875 112.771 68.7687 112.606 68.7687C111.066 68.775 109.525 68.775 107.985 68.7687C107.808 68.7687 107.579 68.8625 107.573 68.5187C107.567 68.2062 107.776 68.2499 107.966 68.2499C108.27 68.2437 108.575 68.2374 108.879 68.2374C109.025 68.2312 109.19 68.2187 109.259 68.0937C109.348 67.9437 109.19 67.8311 109.101 67.7374C108.327 66.8998 107.554 66.0685 106.755 65.2559C106.476 64.9746 106.286 64.4433 105.893 64.4808C105.563 64.5058 105.297 64.9684 104.948 65.1309C104.124 65.5309 104.099 66.206 104.124 66.9811C104.162 68.2499 104.131 68.2499 105.43 68.2499C105.557 68.2499 105.684 68.2624 105.811 68.2499C106.032 68.2437 106.071 68.3687 106.071 68.55C106.077 68.75 105.956 68.7687 105.798 68.7687C105.101 68.7687 104.403 68.7687 103.7 68.7687C102.768 68.7687 101.836 68.775 100.904 68.7625C100.739 68.7625 100.492 68.8625 100.485 68.525C100.479 68.2062 100.682 68.2437 100.872 68.2374C102.33 68.1874 102.324 68.1874 102.324 66.731C102.324 64.9309 102.305 63.1307 102.343 61.3306C102.349 60.7993 102.108 60.6367 101.665 60.6117C101.36 60.593 101.056 60.5992 100.752 60.6055C100.587 60.6117 100.485 60.568 100.485 60.368C100.492 60.1805 100.53 60.0804 100.752 60.0804C102.438 60.0867 104.118 60.0867 105.804 60.0804C106.026 60.0804 106.064 60.1992 106.064 60.3805C106.071 60.5867 105.956 60.6055 105.792 60.6055C105.449 60.5992 105.113 60.5867 104.771 60.6117C104.346 60.6367 104.099 60.8118 104.118 61.3118C104.162 62.5119 104.143 63.6933 104.143 64.9809Z" fill="#00607C"/>
<path fill-rule="evenodd" clip-rule="evenodd" d="M186.48 66.8061C186.48 65.1309 186.486 63.5808 186.48 62.0306C186.473 61.2368 186.125 60.8555 185.319 60.7055C185.193 60.6805 185.079 60.6368 184.952 60.6305C184.73 60.618 184.755 60.4805 184.749 60.3367C184.743 60.1492 184.819 60.093 184.996 60.093C186.239 60.0992 187.469 60.0992 188.705 60.093C188.882 60.093 188.965 60.168 188.958 60.343C188.958 60.493 188.939 60.5805 188.743 60.6305C187.348 60.9743 187.234 61.1368 187.234 62.5619C187.234 64.4308 187.234 66.306 187.228 68.1749C187.228 68.3687 187.342 68.6812 187.126 68.7437C186.841 68.825 186.505 68.8687 186.226 68.5937C185.624 67.9937 184.977 67.4249 184.356 66.8436C182.695 65.2684 181.028 63.6933 179.354 62.1119C179.284 62.0431 179.208 61.9806 179.05 61.8431V64.7559V66.7123C179.05 67.6936 179.5 68.1687 180.483 68.2374C180.616 68.2437 180.736 68.2499 180.857 68.2562C181.053 68.2562 181.078 68.3812 181.085 68.5437C181.091 68.7312 181.009 68.7875 180.831 68.7812C179.449 68.775 178.074 68.775 176.698 68.7812C176.508 68.7875 176.444 68.7 176.451 68.525C176.451 68.3624 176.495 68.2374 176.685 68.2499C176.92 68.2562 177.148 68.1999 177.364 68.1249C178.004 67.8937 178.295 67.4811 178.302 66.8061C178.302 65.1122 178.302 63.4183 178.302 61.7181C178.302 61.1118 178.093 60.8618 177.484 60.6868C177.224 60.6055 176.958 60.6055 176.692 60.618C176.501 60.6243 176.444 60.5305 176.451 60.3617C176.451 60.1992 176.489 60.093 176.692 60.093C177.528 60.0992 178.372 60.093 179.208 60.0992C179.437 60.0992 179.532 60.3055 179.671 60.4305C181.801 62.4369 183.937 64.4433 186.08 66.456C186.188 66.5498 186.296 66.6435 186.48 66.8061Z" fill="#00607C"/>
<path fill-rule="evenodd" clip-rule="evenodd" d="M133.92 67.1311C133.92 66.7248 133.907 66.3123 133.926 65.9122C133.939 65.7497 133.793 65.4934 134.135 65.4809C134.389 65.4684 134.579 65.4809 134.661 65.781C135.225 67.8936 137.844 68.8312 139.828 68.3249C140.151 68.2374 140.474 68.0812 140.741 67.8811C141.438 67.3749 141.742 66.2623 140.595 65.7185C139.764 65.3247 138.858 65.2309 137.964 65.0684C137.254 64.9309 136.525 64.8121 135.834 64.5996C134.87 64.2871 134.167 63.737 134.072 62.6557C133.989 61.7931 134.579 60.8493 135.561 60.3992C137.096 59.6992 138.642 59.7804 140.126 60.5617C140.424 60.7243 140.595 60.7242 140.791 60.468C140.899 60.3305 141.032 60.1992 141.165 60.0929C141.33 59.9367 141.546 59.9929 141.73 60.0242C141.964 60.0742 141.863 60.2867 141.863 60.4305C141.876 61.2368 141.888 62.0494 141.882 62.8682C141.882 63.012 142.002 63.2495 141.692 63.262C141.476 63.2682 141.311 63.2682 141.21 62.987C140.741 61.7243 139.866 60.843 138.49 60.5805C137.609 60.4055 136.715 60.3992 135.904 60.9243C135.46 61.2118 135.206 61.5931 135.232 62.0994C135.257 62.6119 135.58 62.9682 136.075 63.1557C137.083 63.537 138.161 63.587 139.2 63.812C139.993 63.9808 140.798 64.1183 141.514 64.5558C143.175 65.5497 142.674 67.5124 141.362 68.2687C139.517 69.3313 137.647 69.1813 135.79 68.3187C135.466 68.1687 135.302 68.1937 135.067 68.4312C134.864 68.6312 134.699 68.9062 134.344 68.9187C134.046 68.9187 133.881 68.8937 133.907 68.525C133.951 68.0562 133.92 67.5936 133.92 67.1311Z" fill="#00607C"/>
<path fill-rule="evenodd" clip-rule="evenodd" d="M78.8997 60.6118C77.6002 60.643 76.421 60.5243 75.2546 60.7305C74.1706 60.918 73.5303 61.6306 73.2006 62.6495C73.1689 62.7495 73.1436 62.8495 73.1246 62.9495C73.0675 63.2495 72.8329 63.137 72.6618 63.1557C72.3892 63.1808 72.4336 62.9807 72.4462 62.837C72.5096 62.0119 72.5984 61.1868 72.6491 60.3617C72.6745 59.9992 72.9217 60.1055 73.1119 60.1055C74.9947 60.0992 76.8648 60.0992 78.7476 60.0992C79.2864 60.0992 79.8253 60.093 80.3641 60.1055C80.5163 60.1117 80.7508 59.993 80.8206 60.2305C80.8776 60.4243 80.8586 60.6305 80.6875 60.8118C79.9394 61.6369 79.1977 62.4807 78.4623 63.312C77.036 64.9309 75.6159 66.5498 74.1135 68.275C75.4448 68.2187 76.6683 68.3687 77.8791 68.1625C78.9631 67.9812 79.6605 67.3499 80.0408 66.356C80.1232 66.1435 80.2374 65.931 80.2754 65.7122C80.3261 65.3997 80.5607 65.5185 80.7318 65.4997C80.9981 65.4747 80.9474 65.6622 80.941 65.8122C80.8967 66.6561 80.8396 67.4999 80.8079 68.35C80.7889 68.7063 80.6304 68.8063 80.2754 68.8C77.6826 68.7875 75.0834 68.7938 72.4843 68.7875C72.3385 68.7875 72.1419 68.875 72.0532 68.6875C71.9708 68.5125 72.0659 68.3625 72.199 68.2187C73.8599 66.3498 75.5145 64.4746 77.1627 62.5932C77.7079 61.9681 78.2595 61.3431 78.8997 60.6118Z" fill="#00607C"/>
<path fill-rule="evenodd" clip-rule="evenodd" d="M152.063 60.0992C153.534 60.0992 155.005 60.1054 156.469 60.0929C156.799 60.0929 156.926 60.1617 156.932 60.5242C156.964 61.368 157.065 62.2056 157.122 63.0557C157.135 63.212 157.262 63.4557 156.907 63.4807C156.641 63.4932 156.507 63.437 156.444 63.1432C156.279 62.4369 156.038 61.7681 155.48 61.243C154.847 60.6617 154.098 60.5617 153.287 60.6242C153.033 60.643 152.926 60.793 152.926 61.0493C152.932 63.3307 152.932 65.6059 152.926 67.8811C152.926 68.1624 153.071 68.2499 153.325 68.2562C153.699 68.2562 154.086 68.2624 154.453 68.2624C154.65 68.2624 154.853 68.2374 154.853 68.5374C154.847 68.8187 154.656 68.7875 154.485 68.7875C152.837 68.7937 151.189 68.7875 149.54 68.7937C149.363 68.7937 149.185 68.8125 149.185 68.5312C149.192 68.2687 149.344 68.2624 149.534 68.2624C149.908 68.2624 150.282 68.2562 150.662 68.2562C150.96 68.2624 151.125 68.1624 151.125 67.8311C151.119 65.5622 151.119 63.312 151.119 61.043C151.125 60.6805 150.884 60.6305 150.605 60.6055C149.261 60.493 148.273 61.1805 147.791 62.5557C147.721 62.7494 147.664 62.9557 147.632 63.162C147.575 63.4745 147.372 63.4745 147.125 63.462C146.808 63.4557 146.91 63.237 146.916 63.0869C146.973 62.1744 147.068 61.268 147.125 60.3492C147.144 60.0242 147.353 60.0929 147.544 60.0929C148.298 60.0929 149.046 60.0929 149.8 60.0929H152.063V60.0992Z" fill="#00607C"/>
<path fill-rule="evenodd" clip-rule="evenodd" d="M94.489 39.5223C94.5904 40.4412 94.5904 41.36 94.4826 42.2788C94.3241 42.4476 94.172 42.6164 94.0325 42.8039C93.4747 43.5727 93.4873 44.1165 94.1086 44.8416C94.2481 44.9978 94.3622 45.1729 94.489 45.3479C95.2814 46.0917 96.2894 46.573 97.0628 47.4293C96.1372 47.5856 95.3258 47.298 94.489 47.173C93.7663 46.773 93.0182 46.4042 92.4667 45.7604C91.5538 44.6978 91.1481 43.504 91.4651 42.1038C91.7567 40.8037 92.7329 40.1724 93.8931 39.7349C94.0896 39.6599 94.2924 39.5911 94.489 39.5223Z" fill="#E1E1E0"/>
<path fill-rule="evenodd" clip-rule="evenodd" d="M98.895 11.1198C98.895 12.1386 98.9014 13.1575 98.9014 14.1763C98.9014 14.3701 98.895 14.4888 98.6097 14.4638C97.456 14.3451 96.2959 14.3326 95.1421 14.5138C94.6666 14.5888 94.5335 14.4576 94.5525 13.9825C94.5969 13.0325 94.5779 12.0824 94.5842 11.126C96.0233 11.126 97.456 11.1198 98.895 11.1198Z" fill="#00607C"/>
<path fill-rule="evenodd" clip-rule="evenodd" d="M87.3887 20.2393C87.5916 20.3143 87.7311 20.4331 87.7311 20.6644C87.1352 21.1519 86.7168 21.8082 86.1589 22.4208C86.0701 22.1145 86.2286 21.9707 86.311 21.8145C86.5075 21.4394 86.3934 21.3457 86.0067 21.4207C85.8482 21.4207 85.6517 21.5832 85.5566 21.3082C86.235 21.0644 86.8626 20.7331 87.3887 20.2393Z" fill="#00617E"/>
<path fill-rule="evenodd" clip-rule="evenodd" d="M85.5625 21.3082C85.683 21.4707 85.8668 21.3582 86.0126 21.4207C85.759 21.5644 85.4928 21.4957 85.2139 21.5019C85.2899 21.3457 85.4357 21.3332 85.5625 21.3082Z" fill="#5795A8"/>
<path fill-rule="evenodd" clip-rule="evenodd" d="M188.388 52.4922C188.413 52.1297 188.267 52.0484 187.925 52.0547C187.266 52.0609 186.6 52.0922 185.941 51.9984C185.148 51.8859 184.73 51.4734 184.647 50.6858C184.609 50.2983 184.59 49.9107 184.59 49.5232C184.584 42.4788 184.584 35.4344 184.597 28.3901C184.597 27.9338 184.508 27.7837 184.013 27.815C182.587 27.9025 181.148 27.9213 179.715 27.9713C178.606 28.015 177.497 28.0713 176.387 28.1025C176.058 28.1088 175.95 28.2213 175.969 28.5401C175.994 28.9464 176.007 29.3589 175.969 29.7589C175.924 30.1965 176.108 30.2777 176.508 30.2777C177.363 30.2715 178.232 30.1902 179.081 30.3715C179.95 30.559 180.223 30.8778 180.223 31.7466V38.5285V39.0473C179.969 39.0035 179.88 38.841 179.753 38.7285C179.081 38.1347 178.34 37.6471 177.478 37.3721C174.035 36.272 170.961 36.9596 168.33 39.3535C165.933 41.5287 165.388 44.329 165.813 47.3918C166.523 52.4297 171.785 55.7113 176.964 53.9986C178.295 53.5548 179.379 52.7297 180.375 51.6234C180.508 52.4422 180.641 53.1548 180.73 53.8674C180.768 54.1674 180.901 54.2174 181.173 54.2174C183.43 54.2111 185.687 54.2111 187.938 54.2174C188.255 54.2236 188.394 54.1549 188.369 53.8111C188.356 53.3798 188.356 52.9298 188.388 52.4922ZM179.696 48.8481C178.771 51.1609 176.425 52.4422 174.105 51.8922C172.482 51.5046 171.563 50.4045 171.113 48.8732C170.828 47.8981 170.764 46.898 170.694 45.6604C170.688 44.779 170.739 43.6727 170.986 42.5788C171.347 40.9537 172.216 39.7536 173.908 39.3285C175.709 38.8785 177.319 39.2723 178.612 40.6349C179.544 41.61 180.013 42.7914 180.165 44.1102C180.362 45.7166 180.311 47.3105 179.696 48.8481Z" fill="#00607C"/>
<path fill-rule="evenodd" clip-rule="evenodd" d="M162.675 48.8044C162.231 48.6669 161.781 48.5356 161.369 48.3419C160.944 48.1481 160.735 48.2419 160.475 48.6231C158.795 51.1046 156.469 52.2985 153.4 51.9922C151.22 51.7797 149.476 50.4296 148.887 48.4169C148.709 47.8231 148.633 47.2105 148.544 46.598C148.494 46.2104 148.57 46.0542 149.033 46.0542C151.22 46.0729 153.407 46.0667 155.588 46.0667C157.775 46.0667 159.962 46.0542 162.142 46.0729C162.561 46.0792 162.656 45.9542 162.631 45.5729C162.599 45.0603 162.586 44.554 162.516 44.0477C162.123 41.1725 160.697 38.9973 158.054 37.6534C156.133 36.6846 154.072 36.5033 151.949 36.7033C148.227 37.0533 143.644 39.9411 143.65 45.6479C143.65 48.0043 144.398 50.042 146.142 51.6859C148.31 53.7299 150.941 54.5174 153.895 54.4299C157.857 54.3174 160.805 52.5172 162.859 49.2169C163.036 48.9357 162.922 48.8857 162.675 48.8044ZM148.538 43.6664C148.684 42.3288 148.976 41.0537 149.939 40.0286C151.163 38.7222 152.684 38.266 154.421 38.6597C155.962 39.0098 157.065 39.9349 157.597 41.4475C157.743 41.8725 157.8 42.3038 157.775 42.7476C157.737 43.6664 157.42 43.9852 156.488 44.004C155.486 44.0165 154.484 44.0102 153.483 44.0102H152.735C151.461 44.0102 150.193 44.004 148.918 44.0165C148.659 44.0102 148.506 43.979 148.538 43.6664Z" fill="#00607C"/>
<path fill-rule="evenodd" clip-rule="evenodd" d="M21.3256 52.8736C21.1227 52.561 20.9199 52.2423 20.6473 51.9922C20.5015 51.861 20.305 52.1047 20.1465 52.1735C18.4792 52.9423 17.262 52.2735 17.186 50.4609C17.1162 48.8357 17.1733 47.2168 17.1733 45.5854H17.1479C17.1479 44.104 17.1543 42.6226 17.1479 41.135C17.1416 40.735 17.1416 40.3287 17.0148 39.9286C16.514 38.3723 15.3475 37.4597 13.8641 36.9971C10.6564 36.0158 7.44231 36.1158 4.31698 37.4097C3.20124 37.8722 2.21864 38.5473 1.54032 39.5724C0.995132 40.4099 0.80495 41.3225 1.3755 42.2164C1.94604 43.1039 2.86526 43.3602 3.89858 43.2602C4.68467 43.1914 5.3503 42.8789 5.69263 42.1226C6.02862 41.3413 5.67995 40.7225 5.1728 40.1474C5.1411 40.1099 5.10941 40.0662 5.06503 40.0224C4.5135 39.3536 4.5769 39.0161 5.33762 38.5473C6.1871 38.041 7.12534 37.8472 8.09527 37.7597C9.49627 37.6347 10.8592 37.7785 12.0574 38.5785C13.04 39.2348 13.6169 40.0974 13.5598 41.3225C13.5218 41.9288 13.5218 42.5226 13.5662 43.1289C13.5852 43.504 13.4774 43.6165 13.0717 43.6602C10.3458 43.929 7.65785 44.3853 5.07771 45.3479C3.55625 45.9167 2.07283 46.5855 0.969775 47.8419C-0.209355 49.1732 -0.317125 51.0234 0.722538 52.311C1.26773 52.9861 1.97774 53.4424 2.8082 53.7299C4.65297 54.3612 6.53577 54.3612 8.43759 54.0924C10.3775 53.8174 11.9116 52.7673 13.3316 51.5297C13.6105 51.2984 13.712 51.2797 13.8831 51.636C14.384 52.6548 15.0306 53.5549 16.1843 53.9549C18.0101 54.5675 19.671 54.2487 21.1798 53.0861C21.2432 53.0423 21.4017 52.9861 21.3256 52.8736ZM11.8102 51.1359C10.5359 52.286 9.0335 52.8673 7.31552 52.8673C6.10469 52.8736 5.02065 52.5235 4.43109 51.3859C3.82885 50.2108 3.96197 49.0232 4.65931 47.9044C5.05869 47.2481 5.69263 46.848 6.37095 46.5105C8.06357 45.6979 9.88932 45.3354 11.7151 45.0354C12.1905 44.9541 12.6723 44.9103 13.1478 44.8291C13.4394 44.7791 13.5789 44.8478 13.5535 45.1791C13.5218 45.5917 13.5408 46.023 13.5408 46.6605C13.6866 48.2669 13.2112 49.867 11.8102 51.1359Z" fill="#00607C"/>
<path fill-rule="evenodd" clip-rule="evenodd" d="M209.131 48.9357C208.611 48.7044 208.364 48.8107 208.034 49.2795C206.297 51.8234 203.876 53.1173 200.725 52.761C198.424 52.4985 196.687 51.4171 195.818 49.1982C195.412 48.1544 195.311 47.048 195.197 45.9417C195.146 45.4791 195.305 45.3854 195.748 45.3854C197.961 45.4104 200.186 45.3916 202.411 45.3916C204.357 45.3916 206.31 45.3916 208.269 45.3854C208.719 45.3854 209.308 45.5291 209.568 45.3041C209.885 45.0291 209.613 44.4478 209.581 43.9977C209.365 41.6288 208.459 39.5911 206.576 38.0597C203.673 35.6782 198.848 35.4032 195.533 37.4346C192.731 39.1348 191.336 41.6663 191.171 44.8853C191 48.0606 192.116 50.6296 194.69 52.5923C198.335 55.3488 205.727 55.6113 209.442 49.8483C209.854 49.2107 209.841 49.267 209.131 48.9357ZM197.194 38.5472C198.645 37.1909 200.801 36.8158 202.627 37.6159C204.497 38.4347 205.651 40.2474 205.6 42.2413C205.562 43.5664 205.029 44.079 203.679 44.079C202.392 44.079 201.105 44.079 199.818 44.079C198.417 44.079 197.016 44.0852 195.622 44.079C195.431 44.079 195.172 44.1727 195.197 43.804C195.311 41.8538 195.653 39.9786 197.194 38.5472Z" fill="#00607C"/>
<path fill-rule="evenodd" clip-rule="evenodd" d="M89.1382 17.2516C88.9987 17.2516 88.8656 17.1391 88.8973 16.9578C88.9607 16.5953 89.1889 16.3702 89.5693 16.3202C89.7341 16.3015 89.9053 16.3327 89.9179 16.5453C89.9433 16.7765 89.4552 17.2391 89.1382 17.2516Z" fill="white"/>
<path fill-rule="evenodd" clip-rule="evenodd" d="M94.4891 45.3478C93.348 44.4915 93.1895 43.6664 93.9883 42.6351C94.1151 42.4726 94.2419 42.2913 94.4828 42.2788C94.4891 43.2976 94.4891 44.329 94.4891 45.3478Z" fill="white"/>
<path fill-rule="evenodd" clip-rule="evenodd" d="M94.4192 30.3715C93.5887 29.609 93.5824 28.6214 94.4192 27.9213V30.3715Z" fill="white"/>
<path fill-rule="evenodd" clip-rule="evenodd" d="M98.9395 37.0659C99.3325 37.4409 99.2564 37.7972 98.9395 38.3097V37.0659Z" fill="white"/>
<path fill-rule="evenodd" clip-rule="evenodd" d="M96.4413 68.2624C95.8264 68.2999 95.4777 68.0249 95.1925 67.4873C93.9309 65.1059 92.6313 62.7432 91.3444 60.3804C91.2367 60.1867 91.1796 59.9366 90.8309 59.9366C90.4759 59.9366 90.3872 60.1617 90.2667 60.3929C89.0052 62.6556 87.731 64.9121 86.5011 67.1811C86.1335 67.8374 85.6707 68.2687 84.8783 68.2499C84.6691 68.2499 84.5993 68.3374 84.593 68.5374C84.5866 68.775 84.7261 68.7875 84.8973 68.7875C86.1715 68.7812 87.4394 68.7812 88.7136 68.7875C88.9038 68.7875 89.0115 68.7499 89.0052 68.5249C89.0052 68.3124 88.9165 68.2562 88.7136 68.2562C88.479 68.2624 88.2445 68.2624 88.0163 68.2374C87.2745 68.1499 87.04 67.7311 87.3506 67.0685C87.4647 66.8248 87.6105 66.606 87.712 66.3622C87.8388 66.056 88.0289 65.9497 88.3713 65.9622C89.4109 65.9809 90.4569 66.031 91.4839 65.9497C92.327 65.8809 92.7898 66.156 93.1448 66.931C93.671 68.0749 94.0767 68.2499 92.3714 68.2562C92.1622 68.2562 91.9847 68.2499 91.9911 68.5437C91.9974 68.8437 92.2003 68.7812 92.3587 68.7812C93.0371 68.7875 93.7217 68.7875 94.3937 68.7875C95.072 68.7875 95.7567 68.7875 96.435 68.7812C96.6125 68.7812 96.8344 68.85 96.828 68.5249C96.847 68.2061 96.6315 68.2499 96.4413 68.2624ZM91.9594 65.4121C90.7676 65.4121 89.5631 65.4121 88.2508 65.4121C88.9545 64.1495 89.6138 62.9744 90.3111 61.7181C90.9451 62.8994 91.5346 64.0058 92.1432 65.1059C92.2763 65.3496 92.2129 65.4121 91.9594 65.4121Z" fill="#00607C"/>
<path fill-rule="evenodd" clip-rule="evenodd" d="M172.331 68.2624C171.729 68.3124 171.386 68.0249 171.12 67.5123C169.839 65.1184 168.54 62.7494 167.247 60.3679C167.126 60.1492 167.037 59.9429 166.708 59.9366C166.359 59.9304 166.296 60.1679 166.182 60.3742C164.933 62.6119 163.69 64.8683 162.448 67.1185C162.093 67.7686 161.649 68.2874 160.806 68.2499C160.597 68.2499 160.533 68.3499 160.533 68.5437C160.54 68.7312 160.628 68.7875 160.799 68.7875C162.086 68.7812 163.373 68.7812 164.66 68.7875C164.825 68.7875 164.939 68.7499 164.939 68.5499C164.939 68.3562 164.882 68.2499 164.66 68.2499C164.413 68.2562 164.159 68.2562 163.912 68.2312C163.139 68.1311 162.936 67.7624 163.272 67.056C163.386 66.8248 163.525 66.5935 163.621 66.356C163.747 66.0497 163.956 65.9497 164.286 65.9684C165.319 65.9872 166.365 66.0309 167.399 65.9434C168.248 65.8809 168.705 66.1685 169.06 66.9373C169.662 68.2186 169.713 68.1999 168.255 68.2499C168.052 68.2624 167.868 68.2374 167.874 68.5374C167.881 68.8875 168.121 68.7749 168.286 68.7749C168.952 68.7812 169.611 68.7812 170.277 68.7812C170.955 68.7812 171.634 68.7812 172.312 68.7749C172.489 68.7749 172.718 68.8625 172.718 68.5187C172.73 68.2186 172.521 68.2499 172.331 68.2624ZM164.178 65.3809C164.869 64.1308 165.529 62.9557 166.213 61.7243C166.885 62.9619 167.526 64.1433 168.198 65.3809H164.178Z" fill="#00607C"/>
<path fill-rule="evenodd" clip-rule="evenodd" d="M68.0405 68.2624C67.4256 68.2999 67.0769 68.0249 66.7917 67.4874C65.5555 65.1559 64.2813 62.8369 63.007 60.5242C62.8739 60.2805 62.8485 59.9429 62.4238 59.9367C62.0054 59.9304 61.942 60.2492 61.8089 60.493C60.5917 62.6807 59.3682 64.8621 58.1701 67.0561C57.796 67.7374 57.3523 68.2937 56.4711 68.2437C56.2429 68.2374 56.2175 68.3687 56.2112 68.55C56.2048 68.7562 56.319 68.7687 56.4838 68.7687C57.7707 68.7687 59.0639 68.7687 60.3445 68.7687C60.503 68.7687 60.6298 68.7625 60.6171 68.55C60.6107 68.3749 60.5981 68.2374 60.3635 68.2437C60.1163 68.2499 59.8627 68.2499 59.6155 68.2187C58.8547 68.1374 58.6265 67.7374 58.9435 67.0686C59.0766 66.7998 59.2161 66.5435 59.3429 66.2685C59.4506 66.031 59.6028 65.9435 59.8817 65.9497C60.7185 65.9685 61.5616 65.9435 62.4048 65.9622C63.0134 65.9685 63.7361 65.7309 64.1862 66.0685C64.6299 66.3935 64.7947 67.0748 65.08 67.5936C65.0864 67.6061 65.099 67.6249 65.1117 67.6374C65.3336 67.9937 65.1434 68.1624 64.8074 68.2062C64.5222 68.2437 64.2369 68.2312 63.9516 68.2437C63.7614 68.2437 63.5966 68.2374 63.5903 68.5062C63.5839 68.775 63.7551 68.7625 63.9389 68.7625C64.6363 68.7625 65.3336 68.7625 66.0373 68.7625C66.7029 68.7625 67.3622 68.7687 68.0215 68.7562C68.2053 68.7562 68.4399 68.8437 68.4399 68.5125C68.4336 68.2312 68.2307 68.2499 68.0405 68.2624ZM59.8563 65.3997C60.5347 64.1746 61.194 62.9932 61.8976 61.7243C62.576 62.9682 63.2162 64.1433 63.8945 65.3997H59.8563Z" fill="#00607C"/>
</g>
<defs>
<clipPath id="clip0">
<rect width="230" height="69" fill="white"/>
</clipPath>
</defs>
</svg>
